# xmcd
#
# Track frame offsets:
# 150
# 16969
# 30050
# 43802
# 60361
# 75195
# 97222
# 109294
# 132178
# 145407
# 162732
#
# Disc length: 2394 seconds
#
#
# Revision: 0
# Processed by: cddbd v1.5.1PL0 Copyright (c) Steve Scherf et al.
# Submitted via: FreeRIP 2.30 
#
DISCID=8a09580b
DTITLE=Mark Trammell Trio - Beside Still Waters
DYEAR=2004
DGENRE=Gospel
TTITLE0=Jesus Christ, My rock Forever
TTITLE1=Stand And Praise The Lord
TTITLE2=The Love Of Christ
TTITLE3=I Am Free
TTITLE4=Everytime I Call Your Name
TTITLE5=I'd Do It All Over Again
TTITLE6=Willing
TTITLE7=When I Stand In The Presence
TTITLE8=When they Ring The Bells Of Heaven
TTITLE9=Beside Still Waters
TTITLE10=According To The Scriptures
EXTD=
EXTT0=
EXTT1=
EXTT2=
EXTT3=
EXTT4=
EXTT5=
EXTT6=
EXTT7=
EXTT8=
EXTT9=
EXTT10=
PLAYORDER=
